<svg xmlns="http://www.w3.org/2000/svg" viewBox="0 0 1082.24 518.03" width="50" height="50" fill="black"><path d="M811.1,333c0-17-2.6-38.61-22.47-38.61H701.71c-11.8,0-11.55,7.62-11.37,10.4.37,3.58,1,11,1,17.24,0,60.65-18.37,68.43-34.38,68.43-19.08,0-40.71,0-40.71-137.9,0-123.35,16.35-132.88,39.44-132.88,18.82,0,34.39,4.91,34.39,65.29,0,6.87-.35,17.73-.53,22.76,0,2.68-.29,10.51,11.6,10.51h86.28c16.91,0,21.31-16.31,22.23-31.09.16-4.26,7.49-91.52-34.44-137C750.24,23,711.89,9.35,657,9.35c-119.18,0-165.62,68.38-165.62,243.88,0,95.21,12.61,158.27,39.67,198.44,26.05,38.69,65.67,56.7,124.68,56.7,51.74,0,91-15.09,116.79-44.84,25.37-29.31,38-72.08,38.64-130.53Z"></path><path d="M465.61,15.61H359.14a8.66,8.66,0,0,0-8.65,8.73v469.9a7.94,7.94,0,0,0,8,7.87H466.29a8,8,0,0,0,8-7.87V24.34A8.67,8.67,0,0,0,465.61,15.61Z"></path><path d="M953.74,309h106.11a8.71,8.71,0,0,0,8.76-8.66V211.61a8.71,8.71,0,0,0-8.76-8.66H953.74a3.48,3.48,0,0,1-3.5-3.47V128a3.48,3.48,0,0,1,3.5-3.46h110.49a8.71,8.71,0,0,0,8.76-8.67V24.27a8.71,8.71,0,0,0-8.76-8.66h-229a8.71,8.71,0,0,0-8.76,8.66V493.45a8.7,8.7,0,0,0,8.76,8.66h229a8.7,8.7,0,0,0,8.76-8.66V395.23a8.71,8.71,0,0,0-8.76-8.67H953.74a3.48,3.48,0,0,1-3.5-3.46V312.47A3.48,3.48,0,0,1,953.74,309Z"></path><path d="M292.29,60.91c-18.15-22.4-47.67-45.3-129-45.3H21a8.71,8.71,0,0,0-8.76,8.66V493.45A8.71,8.71,0,0,0,21,502.12h140.4c67.13,0,107-15.8,133.12-52.86,26.85-38,38.82-100,38.82-201C333.35,153.72,320.69,95.94,292.29,60.91ZM155.11,386.56H139.52A3.48,3.48,0,0,1,136,383.1V128a3.48,3.48,0,0,1,3.51-3.46h16.2c39.82,0,55.11,12.18,55.11,129.34C210.83,372.78,196.69,386.56,155.11,386.56Z"></path></svg>